<?xml version="1.0" encoding="UTF-8"?>
<svg width="133px" height="133px" viewBox="0 0 133 133" version="1.1" xmlns="http://www.w3.org/2000/svg" xmlns:xlink="http://www.w3.org/1999/xlink">
    <title>Add cost</title>
    <g id="page1" stroke="none" stroke-width="1" fill="none" fill-rule="evenodd">
        <g id="Step1_Homepage" transform="translate(-88.000000, -645.000000)">
            <g id="Add-cost" transform="translate(88.000000, 645.000000)">
                <circle id="椭圆形备份" fill="#F2F2F2" cx="66.5" cy="66.5" r="66.5"></circle>
                <g id="售后补偿申请流程" transform="translate(34.000000, 34.000000)" fill-rule="nonzero">
                    <path d="M13.8333334,23.5789474 L13.8333334,16.8421053 L43.8333334,16.8421053 L43.8333334,23.5789474 L13.8333334,23.5789474 Z M13.8333334,37.0526316 L13.8333334,30.3157895 L30.5,30.3157895 L30.5,37.0526316 L13.8333334,37.0526316 Z M7.16666672,6.73684216 L7.16666672,57.2631579 L40.5,57.2631579 L40.5,64 L3.83333336,64 C1.99238418,64 0.5,62.4919065 0.5,60.6315789 L0.5,3.36842108 C0.5,1.50809349 1.99238418,0 3.83333336,0 L57.1666667,0 C59.0076159,0 60.5,1.50809352 60.5,3.36842108 L60.5,33.6842105 L53.8333334,33.6842105 L53.8333334,6.73684216 L7.16666672,6.73684216 Z" id="形状" fill="#4B4C51"></path>
                    <polygon id="路径" fill="#8BB3F1" points="69.5 50.2533214 60.86 50.2533214 69.39875 41.779502 64.6265 37.0435413 56.043875 45.5575527 47.417375 37 42.645125 41.7359607 51.22775 50.2533214 42.5 50.2533214 42.5 56.9519928 52.625 56.9519928 52.625 67 59.375 67 59.375 56.9519928 69.5 56.9519928"></polygon>
                </g>
            </g>
        </g>
    </g>
</svg>