<?xml version="1.0" encoding="UTF-8"?>
<svg width="133px" height="133px" viewBox="0 0 133 133" version="1.1" xmlns="http://www.w3.org/2000/svg" xmlns:xlink="http://www.w3.org/1999/xlink">
    <title>add invoice</title>
    <g id="page1" stroke="none" stroke-width="1" fill="none" fill-rule="evenodd">
        <g id="Step1_Homepage" transform="translate(-904.000000, -645.000000)">
            <g id="add-invoice" transform="translate(904.000000, 645.000000)">
                <circle id="椭圆形备份" fill="#F2F2F2" cx="66.5" cy="66.5" r="66.5"></circle>
                <g id="编组-6" transform="translate(67.000000, 67.000000) rotate(-270.000000) translate(-67.000000, -67.000000) translate(36.000000, 30.000000)" fill-rule="nonzero">
                    <g id="编组" transform="translate(0.000000, 0.000000)">
                        <path d="M58.1054032,0 C60.2563296,0 62,1.74373309 62,3.89473687 L62,70.1052631 C62,72.2562669 60.2563296,74 58.1054032,74 L3.89459678,74 C1.74367037,74 2.54155671e-14,72.2562669 2.54155671e-14,70.1052631 L2.54155671e-14,3.89473687 C2.54155671e-14,1.74373309 1.74367037,0 3.89459678,0 C11.2219103,0 16.7173955,0 20.3810523,0 C20.3810523,0 20.3810523,0 20.3810523,0 C20.9663711,1.97194869e-15 21.4567218,0.442977815 21.5159927,1.0252879 C21.5174571,1.0396764 21.5189428,1.05365292 21.5204498,1.06721746 C22.0505089,5.83833175 26.0924399,9.5483871 31,9.5483871 C35.8830844,9.5483871 39.9091525,5.87524614 40.4713577,1.13852357 C40.4713577,1.13852357 40.4713577,1.13852357 40.4713577,1.13852357 C40.5484373,0.489108403 41.0990569,-2.26365791e-05 41.7530304,0 C41.8183629,0 41.8703377,0 41.9089551,0 C45.6359076,0 51.0347236,0 58.1054032,0 Z M31,16.7096774 C24.5913264,16.7096774 19.0261795,13.094352 16.2288079,7.78947365 L7.78919357,7.78947365 L7.78919357,66.2105263 L54.2108064,66.2105263 L54.2108064,7.78947365 L45.7711921,7.78947365 C42.9738205,13.094352 37.4086736,16.7096774 31,16.7096774 Z" id="形状" fill="#4B4C51"></path>
                        <polygon id="路径" fill="#8BB3F1" points="16.8247864 52.516129 16.8247864 44.7580645 44.181624 44.7580645 44.181624 52.516129"></polygon>
                    </g>
                </g>
            </g>
        </g>
    </g>
</svg>