<?xml version="1.0" encoding="UTF-8"?>
<svg width="68px" height="70px" viewBox="0 0 68 70" version="1.1" xmlns="http://www.w3.org/2000/svg" xmlns:xlink="http://www.w3.org/1999/xlink">
    <title>home_selected</title>
    <g id="page1" stroke="none" stroke-width="1" fill="none" fill-rule="evenodd">
        <g id="画板" transform="translate(-128.000000, -662.000000)" fill-rule="nonzero">
            <g id="home_selected" transform="translate(128.000000, 662.000000)">
                <path d="M8.01863912,70 C6.33999041,69.8702626 5.01488279,68.4279379 5.01488279,66.6665317 L4.898,25.221 L3.33032193,26.1915598 L0,20.4746617 L32.3332224,0.473852021 C32.8155488,0.175500749 33.3544546,0.0175500749 33.8966885,-8.07999501e-14 L34.1033115,-8.07999501e-14 C34.6455454,0.0175500749 35.1844512,0.175500749 35.6667776,0.473852021 L68,20.4746617 L64.6696781,26.1915598 L63.101,25.221 L62.9851172,66.6665317 C62.9851172,68.4279379 61.6600096,69.8702626 59.981485,69.9917188 L59.9813609,70 L8.01863912,70 Z" id="形状结合" fill="#0C3A84"></path>
                <polygon id="路径" fill="#FFFFFF" points="31 55 38 55 38 31 31 31"></polygon>
            </g>
        </g>
    </g>
</svg>