<?xml version="1.0" encoding="UTF-8"?>
<svg width="120px" height="120px" viewBox="0 0 120 120" version="1.1" xmlns="http://www.w3.org/2000/svg" xmlns:xlink="http://www.w3.org/1999/xlink">
    <title>发票</title>
    <g id="page1" stroke="none" stroke-width="1" fill="none" fill-rule="evenodd">
        <g id="Step3.0_piaoju_wodefapiao" transform="translate(-48.000000, -666.000000)">
            <g id="发票" transform="translate(48.000000, 666.000000)">
                <circle id="椭圆形" fill="#C0C4CC" opacity="0.3" cx="60" cy="60" r="60"></circle>
                <g id="发票列表" transform="translate(21.000000, 26.000000)" fill-rule="nonzero">
                    <rect id="矩形" fill="#000000" opacity="0" x="0" y="0" width="76" height="76"></rect>
                    <path d="M66.667463,33 L59.7061634,33 C58.7878643,33 58.0398949,32.2391714 58.0398949,31.3050847 C58.0398949,30.3709981 58.7878643,29.6101695 59.7061634,29.6101695 L66.667463,29.6101695 L66.667463,12.3898305 L11.332537,12.3898305 L11.332537,29.6026365 L18.2938366,29.6026365 C19.2121357,29.6026365 19.9601051,30.3634652 19.9601051,31.2975518 C19.9601051,32.2316384 19.2121357,32.992467 18.2938366,32.992467 L11.332537,32.992467 C9.49593884,32.992467 8,31.4708098 8,29.6026365 L8,12.3898305 C8,10.5216573 9.49593884,9 11.332537,9 L66.667463,9 C68.5040612,9 70,10.5216573 70,12.3898305 L70,29.6026365 C70,31.4783427 68.5040612,33 66.667463,33 Z" id="路径" fill="#0C3A84"></path>
                    <path d="M63.3299702,23 L14.6626403,23 C13.7463408,23 13,22.1022222 13,21 C13,19.8977778 13.7463408,19 14.6626403,19 L63.3373597,19 C64.2536592,19 65,19.8977778 65,21 C65,22.1022222 64.2536592,23 63.3299702,23 L63.3299702,23 Z" id="路径" fill="#0C3A84"></path>
                    <path d="M39,67 C38.366435,67 37.7328699,66.8118455 37.1794108,66.4280105 L28.8192651,60.6629581 L22.0976498,65.2990838 C21.0926845,65.9914921 19.796425,66.0592277 18.7332009,65.4646597 C17.6626945,64.8776178 17,63.7336387 17,62.476767 L17,22.6933901 C17,21.760144 17.735518,21 18.6385303,21 C19.5415425,21 20.2770606,21.760144 20.2770606,22.6933901 L20.2770606,62.4842932 L27.9089705,57.2234948 C28.4624297,56.8471859 29.1761006,56.8471859 29.7295597,57.2234948 L39,63.6132199 L48.2704403,57.2234948 C48.8238994,56.8471859 49.5375703,56.8471859 50.0910295,57.2234948 L57.7229394,62.4842932 L57.7229394,22.6933901 C57.7229394,21.760144 58.4584575,21 59.3614697,21 C60.264482,21 61,21.760144 61,22.6933901 L61,62.4842932 C61,63.7336387 60.3373055,64.8776178 59.2667991,65.4721859 C58.203575,66.0667539 56.9145978,65.9990183 55.9023502,65.3066099 L49.1807349,60.6704843 L40.8205892,66.4280105 C40.2671301,66.8118455 39.633565,67 39,67 Z" id="路径" fill="#0C3A84"></path>
                    <path d="M48.3018621,37.3601379 L28.690624,37.3601379 C27.7589023,37.3601379 27,36.6059736 27,35.6800689 C27,34.7541643 27.7589023,34 28.690624,34 L48.309376,34 C49.2410977,34 50,34.7541643 50,35.6800689 C50,36.6059736 49.2410977,37.3601379 48.3018621,37.3601379 Z M48.3018621,47 L28.690624,47 C27.7589023,47 27,46.2458357 27,45.3199311 C27,44.3940264 27.7589023,43.6398621 28.690624,43.6398621 L48.309376,43.6398621 C49.2410977,43.6398621 50,44.3940264 50,45.3199311 C50,46.2458357 49.2410977,47 48.3018621,47 Z" id="形状" fill="#0C3A84"></path>
                </g>
            </g>
        </g>
    </g>
</svg>