<?xml version="1.0" encoding="UTF-8"?>
<svg width="110px" height="110px" viewBox="0 0 110 110" version="1.1" xmlns="http://www.w3.org/2000/svg" xmlns:xlink="http://www.w3.org/1999/xlink">
    <title>other fee</title>
    <g id="page1" stroke="none" stroke-width="1" fill="none" fill-rule="evenodd">
        <g id="画板" transform="translate(-650.000000, -231.000000)">
            <g id="other-fee" transform="translate(650.000000, 231.000000)">
                <circle id="椭圆形" fill="#E23939" opacity="0.103841146" cx="55" cy="55" r="55"></circle>
                <g id="其他产品-Others" transform="translate(7.000000, 7.000000)" fill-rule="nonzero">
                    <rect id="矩形" fill="#000000" opacity="0" x="0" y="0" width="96" height="96"></rect>
                    <g id="编组-2" transform="translate(13.000000, 19.000000)" fill="#FF5F5F">
                        <path d="M35.0557623,59 L34.9438299,59 C34.4325453,59 33.9535125,58.841424 33.5608004,58.5676046 L1.39350859,44.4055202 C0.200195124,43.8800084 -0.328163862,42.5145994 0.211578082,41.3547855 C0.751320026,40.1949715 2.15711539,39.680523 3.35042886,40.2060349 L34.9997961,54.1403974 L66.6491633,40.2060349 C67.8424768,39.680523 69.2473236,40.1949715 69.7880141,41.3547855 C70.3287046,42.5145994 69.799397,43.8800084 68.6060836,44.4055202 L36.4387917,58.5676046 C36.0358099,58.8490698 35.5520076,59.0003273 35.0557623,59 L35.0557623,59 Z" id="路径"></path>
                        <path d="M35.0557623,47 L34.9438299,47 C34.4325453,47 33.9535125,46.841424 33.5608004,46.5676046 L1.39350859,32.4055202 C0.200195124,31.8800084 -0.328163862,30.5145994 0.211578082,29.3547855 C0.752268605,28.1949715 2.15711539,27.681445 3.35042886,28.2060349 L34.9997961,42.1403974 L66.6491633,28.2060349 C67.8424768,27.680523 69.2473236,28.1949715 69.7880141,29.3547855 C70.3287046,30.5145994 69.799397,31.8800084 68.6060836,32.4055202 L36.4387917,46.5676046 C36.0358099,46.8490698 35.5520076,47.0003273 35.0557623,47 L35.0557623,47 Z" id="路径"></path>
                        <path d="M36.0554916,34 L35.9435599,34 C35.4322786,34 34.9532489,33.8361917 34.5605393,33.5533425 L2.87248459,19.1413668 C2.59265533,19.0813685 2.32231181,18.9689907 2.07568263,18.8080429 C1.40476878,18.3682623 1,17.6182555 1,16.8138132 L1,16.7547673 C1,15.9462186 1.40883529,15.1919541 2.08611695,14.7538712 C2.33748899,14.5910186 2.61352395,14.4795932 2.89809608,14.4214996 L34.5870994,0.428559724 C34.9850976,0.149348492 35.458974,-2.13162821e-14 35.9445084,-2.13162821e-14 L36.0564401,-2.13162821e-14 C36.5563385,-2.13162821e-14 37.0258825,0.157138786 37.4138492,0.428559724 L69.1019039,14.4214996 C69.386476,14.4795932 69.662511,14.5910186 69.913883,14.7538712 C70.5910184,15.1922444 71,15.9458511 71,16.7547673 L71,16.8138132 C71,17.6185525 70.5959076,18.3680552 69.9243174,18.8080429 C69.6776882,18.9699431 69.4073447,19.0813685 69.128464,19.1413668 L37.4385121,33.5533425 C37.0356002,33.8442236 36.5517568,34.0004835 36.0554916,34 Z M9.25543736,16.8166703 L36.0004743,28.9801378 L62.7445626,16.8166703 L36.0004743,5.00652623 L9.25543736,16.8166703 Z" id="形状"></path>
                    </g>
                </g>
            </g>
        </g>
    </g>
</svg>