<?xml version="1.0" encoding="UTF-8"?>
<svg width="110px" height="110px" viewBox="0 0 110 110" version="1.1" xmlns="http://www.w3.org/2000/svg" xmlns:xlink="http://www.w3.org/1999/xlink">
    <title>accommodation fee</title>
    <g id="page1" stroke="none" stroke-width="1" fill="none" fill-rule="evenodd">
        <g id="画板" transform="translate(-258.000000, -231.000000)">
            <g id="accommodation-fee" transform="translate(258.000000, 231.000000)">
                <circle id="椭圆形" fill="#8E39E2" opacity="0.103841146" cx="55" cy="55" r="55"></circle>
                <g id="楼控管理" transform="translate(24.000000, 24.000000)" fill-rule="nonzero">
                    <rect id="矩形" fill="#000000" opacity="0" x="0" y="0" width="62" height="62"></rect>
                    <path d="M5.69140625,57.640625 L5.69140625,4.359375 C5.69140625,1.95172852 7.64313477,0 10.0507812,0 L34.5117188,0 C36.9193652,0 38.8710938,1.95172852 38.8710938,4.359375 L38.8710938,11.8671875 L51.9492188,11.8671875 C54.3568652,11.8671875 56.3085938,13.818916 56.3085938,16.2265625 L56.3085938,57.640625 L59.8203125,57.640625 C61.0241055,57.640625 62,58.6165195 62,59.8203125 C62,61.0241055 61.0241055,62 59.8203125,62 L2.1796875,62 C0.975894531,62 0,61.0241055 0,59.8203125 C0,58.6165195 0.975894531,57.640625 2.1796875,57.640625 L5.69140625,57.640625 Z M10.0507812,57.640625 L34.5117188,57.640625 L34.5117188,4.359375 L10.0507812,4.359375 L10.0507812,57.640625 Z M38.8710938,57.640625 L51.9492187,57.640625 L51.9492187,16.2265625 L38.8710938,16.2265625 L38.8710938,57.640625 Z M15.7421875,14.6523438 L28.3359375,14.6523438 C29.5397305,14.6523438 30.515625,15.6282383 30.515625,16.8320312 C30.515625,18.0358242 29.5397305,19.0117188 28.3359375,19.0117188 L15.7421875,19.0117188 C14.5383945,19.0117188 13.5625,18.0358242 13.5625,16.8320312 C13.5625,15.6282383 14.5383945,14.6523438 15.7421875,14.6523438 Z M15.7421875,28.8203125 L28.3359375,28.8203125 C29.5397305,28.8203125 30.515625,29.796207 30.515625,31 C30.515625,32.203793 29.5397305,33.1796875 28.3359375,33.1796875 L15.7421875,33.1796875 C14.5383945,33.1796875 13.5625,32.203793 13.5625,31 C13.5625,29.796207 14.5383945,28.8203125 15.7421875,28.8203125 Z M15.7421875,42.9882812 L28.3359375,42.9882812 C29.5397305,42.9882812 30.515625,43.9641758 30.515625,45.1679688 C30.515625,46.3717617 29.5397305,47.3476562 28.3359375,47.3476562 L15.7421875,47.3476562 C14.5383945,47.3476562 13.5625,46.3717617 13.5625,45.1679688 C13.5625,43.9641758 14.5383945,42.9882812 15.7421875,42.9882812 Z M45.4101562,24.21875 C46.6139492,24.21875 47.5898438,25.1946445 47.5898438,26.3984375 L47.5898438,30.7578125 C47.5898438,31.9616055 46.6139492,32.9375 45.4101562,32.9375 C44.2063633,32.9375 43.2304688,31.9616055 43.2304688,30.7578125 L43.2304688,26.3984375 C43.2304688,25.1946445 44.2063633,24.21875 45.4101562,24.21875 Z M45.4101562,38.75 C46.6139492,38.75 47.5898438,39.7258945 47.5898438,40.9296875 L47.5898438,45.2890625 C47.5898438,46.4928555 46.6139492,47.46875 45.4101562,47.46875 C44.2063633,47.46875 43.2304688,46.4928555 43.2304688,45.2890625 L43.2304688,40.9296875 C43.2304688,39.7258945 44.2063633,38.75 45.4101562,38.75 Z" id="形状" fill="#8E39E2"></path>
                </g>
            </g>
        </g>
    </g>
</svg>