<?xml version="1.0" encoding="UTF-8"?>
<svg width="133px" height="133px" viewBox="0 0 133 133" version="1.1" xmlns="http://www.w3.org/2000/svg" xmlns:xlink="http://www.w3.org/1999/xlink">
    <title>Add receipt</title>
    <g id="page1" stroke="none" stroke-width="1" fill="none" fill-rule="evenodd">
        <g id="Step1_Homepage" transform="translate(-496.000000, -645.000000)">
            <g id="Add-receipt" transform="translate(496.000000, 645.000000)">
                <circle id="椭圆形" fill="#F2F2F2" cx="66.5" cy="66.5" r="66.5"></circle>
                <g id="编组" transform="translate(36.000000, 33.000000)" fill-rule="nonzero">
                    <path d="M13.1111111,26 L13.1111111,19.5 L45.7708889,19.5 L45.7708889,26 L13.1111111,26 L13.1111111,26 Z M13.1111111,39 L13.1111111,32.5 L36.0555556,32.5 L36.0555556,39 L13.1111111,39 Z M13.1111111,9.74999999 L13.1111111,0 L19.6666667,0 L19.6666667,9.74999999 L13.1111111,9.74999999 L13.1111111,9.74999999 Z M39.3333333,9.74999999 L39.3333333,0 L45.8888889,0 L45.8888889,9.74999999 L39.3333333,9.74999999 L39.3333333,9.74999999 Z M52.4444445,30.875 L52.4444445,9.75000002 L49.1666667,9.75000002 L49.1666667,3.25000002 L55.7222223,3.25000002 C57.5324889,3.25000002 59,4.70507463 59,6.50000005 L59,30.875 L52.4444445,30.875 Z M22.9444445,9.75000002 L22.9444445,3.25000002 L36.0555556,3.25000002 L36.0555556,9.75000002 L22.9444445,9.75000002 L22.9444445,9.75000002 Z M6.55555561,9.75000002 L6.55555561,58.5 L42.6111111,58.5 L42.6111111,65 L3.2777778,65 C1.46751111,65 -3.55271368e-15,63.5449254 -3.55271368e-15,61.75 L-3.55271368e-15,6.50000005 C-3.55271368e-15,4.7050746 1.46751111,3.25000002 3.2777778,3.25000002 L9.83333333,3.25000002 L9.83333333,9.75000002 L6.55555561,9.75000002 Z" id="形状" fill="#4B4C51"></path>
                    <path d="M70,48.2104615 L57.9180907,36.9349526 C57.2776045,36.3363673 56.4082643,36 55.5017089,36 C54.5951535,36 53.7258132,36.3363673 53.085327,36.9349526 L41,48.2104615 L45.8327637,52.7162008 L52.0873306,46.8871198 L52.0873306,68 L58.919505,68 L58.919505,46.8903086 L65.1672363,52.7162008 L70,48.2104615 L70,48.2104615 Z" id="路径" fill="#8BB3F1"></path>
                </g>
            </g>
        </g>
    </g>
</svg>