<?xml version="1.0" encoding="UTF-8"?>
<svg width="65px" height="67px" viewBox="0 0 65 67" version="1.1" xmlns="http://www.w3.org/2000/svg" xmlns:xlink="http://www.w3.org/1999/xlink">
    <title>invoice_default</title>
    <g id="page1" stroke="none" stroke-width="1" fill="none" fill-rule="evenodd">
        <g id="画板" transform="translate(-395.000000, -778.000000)" fill="#C0C4CC" fill-rule="nonzero">
            <g id="invoice_default" transform="translate(395.000000, 778.000000)">
                <path d="M57.7631578,57.2075301 L52.9597895,53.8575547 C51.7098588,52.9849595 50.0260448,53.0578277 48.8570526,54.0351035 L42.3694737,59.4687636 L34.3694736,54.1624025 C33.23756,53.4113396 31.7624399,53.4113396 30.6305263,54.1624025 L22.6237895,59.4721136 L16.1395789,54.0585532 C14.9676234,53.0826566 13.2818552,53.0138897 12.0334737,53.8910545 L7.23684208,57.2510799 L7.23684208,6.69995088 L57.7631578,6.69995088 L57.7631578,57.2075301 Z M61.1315789,0 L3.86842108,0 C2.00809349,0 0.5,1.49983509 0.5,3.34997544 L0.5,63.6495329 C0.5,65.4987193 2.09326313,67 3.95263155,67 C4.64746615,66.9990675 5.32516224,66.7849368 5.89284208,66.3864628 L13.7951579,60.8523034 L20.2288421,66.2156141 C21.3751698,67.1727954 23.0190946,67.2628662 24.2642105,66.4367124 L32.5,60.9762525 L40.7357894,66.4367124 C41.9823783,67.2636163 43.6283326,67.1721442 44.7745263,66.2122641 L51.2149473,60.8188037 L59.1981052,66.3898127 C60.2264904,67.1067418 61.5705143,67.1951595 62.6848929,66.6191939 C63.7992715,66.0432283 64.4989262,64.898537 64.5,63.6495329 L64.5,3.34997544 C64.5,1.49983509 62.9919065,0 61.1315789,0 Z" id="形状"></path>
                <polygon id="形状" transform="translate(21.000000, 29.500000) rotate(-90.000000) translate(-21.000000, -29.500000) " points="8 33 8 26 34 26 34 33"></polygon>
            </g>
        </g>
    </g>
</svg>