<?xml version="1.0" encoding="UTF-8"?>
<svg width="70px" height="70px" viewBox="0 0 70 70" version="1.1" xmlns="http://www.w3.org/2000/svg" xmlns:xlink="http://www.w3.org/1999/xlink">
    <title>wo_default</title>
    <g id="page1" stroke="none" stroke-width="1" fill="none" fill-rule="evenodd">
        <g id="画板" transform="translate(-931.000000, -775.000000)">
            <g id="wo_default" transform="translate(931.000000, 775.000000)">
                <rect id="矩形" fill="#000000" fill-rule="nonzero" opacity="0" x="0" y="0" width="70" height="70"></rect>
                <path d="M35,6.74597221 C41.0756667,6.74597221 46,11.6706168 46,17.7468761 C46,23.8213276 41.0756667,28.7459722 35,28.7459722 C28.9243333,28.7459722 24,23.8213276 24,17.7468761 C24,11.6724247 28.9243333,6.74597221 35,6.74597221 Z M35,0 C25.3361111,0 17.5,7.945 17.5,17.7469444 C17.5,27.5469444 25.3361111,35.4938889 35,35.4938889 C44.6638889,35.4938889 52.5,27.5469445 52.5,17.7469444 C52.5,13.0413888 50.6566667,8.52638883 47.3744444,5.1975 C44.1121337,1.87771505 39.6544188,0.00539074112 35,0 Z M57.4,47 C60.4930666,47 63,49.387641 63,52.332749 L63,63 L7,63 L7,52.332749 C7,49.387641 9.50693334,47 12.6,47 L57.4,47 Z M58.3333333,40 L11.6666667,40 C5.22277779,40 0,45.3724279 0,51.9992111 L0,66.000263 C0,68.2091907 1.74027779,70 3.8888889,70 L66.1111111,70 C68.2597222,70 70,68.2091907 70,66.000263 L70,51.9992111 C70,45.3724279 64.7772222,40 58.3333333,40 Z" id="形状" fill="#C0C4CC" fill-rule="nonzero"></path>
                <path d="M40.975491,19.0005004 C40.699655,21.8035114 38.1296551,24 35,24 C31.8703449,24 29.300345,21.8035114 29.024509,19.0005004 Z" id="形状结合" fill="#C0C4CC"></path>
            </g>
        </g>
    </g>
</svg>