<?xml version="1.0" encoding="UTF-8"?>
<svg width="65px" height="67px" viewBox="0 0 65 67" version="1.1" xmlns="http://www.w3.org/2000/svg" xmlns:xlink="http://www.w3.org/1999/xlink">
    <title>invoice_selected</title>
    <g id="page1" stroke="none" stroke-width="1" fill="none" fill-rule="evenodd">
        <g id="画板" transform="translate(-399.000000, -665.000000)" fill-rule="nonzero">
            <g id="invoice_selected" transform="translate(399.000000, 665.000000)">
                <path d="M61.1315789,0 L3.86842108,0 C2.00809349,0 0.5,1.49983509 0.5,3.34997544 L0.5,63.6495329 C0.5,65.4987193 2.09326313,67 3.95263155,67 C4.64746615,66.9990675 5.32516224,66.7849368 5.89284208,66.3864628 L13.7951579,60.8523034 L20.2288421,66.2156141 C21.3751698,67.1727954 23.0190946,67.2628662 24.2642105,66.4367124 L32.5,60.9762525 L40.7357894,66.4367124 C41.9823783,67.2636163 43.6283326,67.1721442 44.7745263,66.2122641 L51.2149473,60.8188037 L59.1981052,66.3898127 C60.2264904,67.1067418 61.5705143,67.1951595 62.6848929,66.6191939 C63.7992715,66.0432283 64.4989262,64.898537 64.5,63.6495329 L64.5,3.34997544 C64.5,1.49983509 62.9919065,0 61.1315789,0 Z" id="形状" fill="#0C3A84"></path>
                <polygon id="形状" fill="#FFFFFF" transform="translate(21.000000, 29.500000) rotate(-90.000000) translate(-21.000000, -29.500000) " points="8 33 8 26 34 26 34 33"></polygon>
            </g>
        </g>
    </g>
</svg>