<?xml version="1.0" encoding="UTF-8"?>
<svg width="110px" height="110px" viewBox="0 0 110 110" version="1.1" xmlns="http://www.w3.org/2000/svg" xmlns:xlink="http://www.w3.org/1999/xlink">
    <title>public fee</title>
    <g id="page1" stroke="none" stroke-width="1" fill="none" fill-rule="evenodd">
        <g id="画板" transform="translate(-464.000000, -231.000000)">
            <g id="public-fee" transform="translate(464.000000, 231.000000)">
                <circle id="椭圆形" fill="#39E25E" opacity="0.103841146" cx="55" cy="55" r="55"></circle>
                <g id="办公" transform="translate(18.000000, 19.000000)" fill-rule="nonzero">
                    <rect id="矩形" fill="#000000" opacity="0" x="0" y="0" width="74" height="74"></rect>
                    <path d="M19.7857143,54.1360179 L8.28571429,54.1360179 C7.02142857,54.1360179 6,53.1123043 6,51.8451902 L6,19.8451902 C6,18.5780761 7.02142857,17.5543624 8.28571429,17.5543624 L19.7142857,17.5543624 L19.7142857,10.5816555 C19.7142857,8.05458613 21.7642857,6 24.2857143,6 L51.7142857,6 C54.2357143,6 56.2857143,8.05458613 56.2857143,10.5816555 L56.2857143,17.5543624 L67.7142857,17.5543624 C68.9785714,17.5543624 70,18.5780761 70,19.8451902 L70,48.9100671 C70,50.1771812 68.9785714,54.1360179 67.7142857,54.1360179 L56.2857143,54.1360179 L56.2857143,67.7091723 C56.2857143,68.9743535 55.2623571,70 54,70 L22.0714286,70 C20.8090714,70 19.7857143,68.9743535 19.7857143,67.7091723 L19.7857143,54.1360179 Z M56.2857143,49.5543624 L64.8571429,49.5543624 C65.1727341,49.5543624 65.4285714,49.2979528 65.4285714,48.9816555 L65.4285714,22.7087248 C65.4285714,22.3924275 65.1727341,22.1360179 64.8571429,22.1360179 L11.1428571,22.1360179 C10.8272659,22.1360179 10.5714286,22.3924275 10.5714286,22.7087248 L10.5714286,48.9816555 C10.5714286,49.2979528 10.8272659,49.5543624 11.1428571,49.5543624 L19.7857143,49.5543624 L19.7857143,37.2841163 C19.7857143,36.6514899 20.2973571,36.1387025 20.9285714,36.1387025 L55.1428571,36.1387025 C55.7740714,36.1387025 56.2857143,36.6514899 56.2857143,37.2841163 L56.2857143,49.5543624 Z M24.2857143,10.5816555 L24.2857143,17.5257271 L51.7142857,17.5257271 L51.7142857,10.5816555 L24.2857143,10.5816555 Z M24.9285714,40.7203579 C24.6129801,40.7203579 24.3571429,40.9767676 24.3571429,41.2930649 L24.3571429,64.8456376 C24.3571429,65.1619349 24.6129801,65.4183445 24.9285714,65.4183445 L51.1428571,65.4183445 C51.4584484,65.4183445 51.7142857,65.1619349 51.7142857,64.8456376 L51.7142857,41.2930649 C51.7142857,40.9767676 51.4584484,40.7203579 51.1428571,40.7203579 L24.9285714,40.7203579 Z M56.2857143,32.6308725 C54.0765714,32.6308725 52.2857143,30.8360089 52.2857143,28.6219239 C52.2857143,26.4078389 54.0765714,24.6129754 56.2857143,24.6129754 C58.4948571,24.6129754 60.2857143,26.4078389 60.2857143,28.6219239 C60.2857143,30.8360089 58.4948571,32.6308725 56.2857143,32.6308725 Z" id="形状" fill="#05B361"></path>
                </g>
            </g>
        </g>
    </g>
</svg>