<?xml version="1.0" encoding="UTF-8"?>
<svg width="110px" height="110px" viewBox="0 0 110 110" version="1.1" xmlns="http://www.w3.org/2000/svg" xmlns:xlink="http://www.w3.org/1999/xlink">
    <title>汽车</title>
    <g id="page1" stroke="none" stroke-width="1" fill="none" fill-rule="evenodd">
        <g id="Step2.2_danjuxiangqing" transform="translate(-64.000000, -2779.000000)">
            <g id="汽车" transform="translate(64.000000, 2779.000000)">
                <circle id="椭圆形" fill="#007AFF" opacity="0.103841146" cx="55" cy="55" r="55"></circle>
                <g id="餐饮" transform="translate(20.370370, 20.370370)" fill-rule="nonzero">
                    <rect id="矩形" fill="#000000" opacity="0" x="27.7037037" y="33.2444444" width="15.237037" height="15.237037"></rect>
                    <g id="公交车-11">
                        <rect id="矩形" fill="#000000" opacity="0" x="0" y="0" width="69.2592593" height="69.2592593"></rect>
                        <path d="M51.0669401,6.18386243 C57.0123502,6.18386243 61.8386243,10.9465308 61.8386243,16.7879722 L61.838545,19.7878624 L64.0336907,19.7883598 C65.5448465,19.7883598 66.7857143,20.9841343 66.7857143,22.4668947 L66.7857143,34.4365974 C66.7734284,35.9074001 65.5448465,37.1031746 64.0336907,37.1031746 L61.838545,37.1028624 L61.8386243,56.8058625 C61.815309,58.2174485 60.6495423,59.3650794 59.227307,59.3650794 L56.658545,59.3648624 L56.6589126,62.983784 C56.6589126,64.3923304 55.4958037,65.5489418 54.0651797,65.5489418 L44.329958,65.5489418 C42.8993341,65.5489418 41.7245941,64.4037821 41.7245941,62.983784 L41.724545,59.3648624 L26.278545,59.3648624 L26.2785932,62.983784 C26.2901387,64.3923304 25.1153986,65.5489418 23.6847747,65.5489418 L13.949553,65.5489418 C12.5189291,65.5489418 11.344189,64.4037821 11.344189,62.983784 L11.343545,59.3648624 L10.0319523,59.3650794 C8.59805926,59.3650794 7.42063492,58.2174484 7.42063492,56.7943861 L7.42054497,37.1028624 L5.22556856,37.1031746 C3.71441278,37.1031746 2.47354497,35.9082253 2.47354497,34.4264882 L2.47354497,22.4650461 C2.47354497,20.9952585 3.70212693,19.7883598 5.22556856,19.7883598 L7.42054497,19.7878624 L7.42063492,16.7879722 C7.42063492,10.9350545 12.2585667,6.18386243 18.1923192,6.18386243 L51.0669401,6.18386243 Z M54.3443258,59.3765309 L44.0508119,59.3765309 L44.0508119,62.983784 C44.0508119,63.1326548 44.1787538,63.2586223 44.329958,63.2586223 L54.0651797,63.2586223 C54.2163839,63.2586223 54.3443258,63.1326548 54.3443258,62.983784 L54.3443258,59.3765309 Z M23.9755519,59.3765309 L13.6820379,59.3765309 L13.6820379,62.983784 C13.6820379,63.1326548 13.8099799,63.2586223 13.9611841,63.2586223 L23.6964058,63.2586223 C23.8476099,63.2586223 23.9755519,63.1326548 23.9755519,62.983784 L23.9755519,59.3765309 Z M59.518545,37.1028624 L59.3650794,37.1031746 L59.3650794,37.541545 C50.2577892,37.541545 43.5775976,40.9802883 39.4946281,47.7435308 C37.2368133,51.481077 36.4249115,55.2798196 36.1518519,57.0705099 L59.227307,57.0698175 C59.3788567,57.0698175 59.507091,56.9321018 59.5187486,56.7714335 L59.518545,37.1028624 Z M9.89417989,36.9759778 L9.89417989,37.1031746 L9.76354497,37.1028624 L9.76382598,56.7943861 C9.76382598,56.9435782 9.8920603,57.0698175 10.04361,57.0698175 L33.4501731,57.0703501 C33.1742001,55.2429335 32.3479492,51.319104 30.0462318,47.4524226 C25.9053992,40.4955002 19.1190347,36.9759779 9.89417989,36.9759778 Z M17.933201,42.0502646 C20.9965513,42.0502646 23.4986772,44.5523904 23.4986772,47.6157407 C23.4986772,50.6061541 21.1254238,53.0617499 18.151827,53.1769878 L17.933201,53.1812169 L17.933201,53.1812169 C14.8581585,53.1812169 12.3677249,50.679091 12.3677249,47.6157407 C12.3677249,44.5523904 14.8698507,42.0502646 17.933201,42.0502646 Z M51.3260582,42.0502646 C54.4011007,42.0502646 56.8915344,44.5523904 56.8915344,47.6157407 C56.8915344,50.679091 54.4011007,53.1812169 51.3260582,53.1812169 C48.2510157,53.1812169 45.760582,50.679091 45.760582,47.6157407 C45.760582,44.5523904 48.2627079,42.0502646 51.3260582,42.0502646 Z M17.933201,44.3886999 C16.1559902,44.3886999 14.7061602,45.8385299 14.7061602,47.6157407 C14.7061602,49.3929516 16.1559902,50.8427816 17.933201,50.8427816 C19.7104119,50.8427816 21.1602418,49.3929516 21.1602418,47.6157407 C21.1602418,45.8385299 19.7221041,44.3886999 17.933201,44.3886999 Z M51.3260582,44.3886999 C49.5488473,44.3886999 48.0990174,45.8385299 48.0990174,47.6157407 C48.0990174,49.3929516 49.5488473,50.8427816 51.3260582,50.8427816 C53.103269,50.8427816 54.553099,49.3929516 54.553099,47.6157407 C54.553099,45.8385299 53.1149612,44.3886999 51.3260582,44.3886999 Z M63.173359,22.2619048 L61.838545,22.2618624 L61.838545,34.6288624 L63.173359,34.6296296 C63.7588361,34.6296296 64.2393793,34.1418701 64.3047275,33.5338037 L64.3121693,33.4106952 L64.3121693,23.4907492 C64.3121693,22.8589844 63.8601465,22.3317395 63.2890643,22.2683018 L63.173359,22.2619048 Z M7.42054497,22.2618624 L6.08590026,22.2619048 C5.46139141,22.2619048 4.94708995,22.8168668 4.94708995,23.4907492 L4.94708995,33.4106952 C4.95627392,34.0746676 5.46139135,34.6296296 6.08590026,34.6296296 L7.42054497,34.6288624 L7.42054497,22.2618624 Z M59.4701977,15.8943368 L35.660545,15.8938624 L35.660545,29.8538624 L59.364545,29.8538624 L59.3650794,19.7883598 L59.518545,19.7878624 L59.5187486,16.7879722 C59.5187486,16.4861285 59.5022856,16.187975 59.4701977,15.8943368 Z M33.392545,15.8938624 L9.81118223,15.8938615 C9.77988044,16.1839446 9.76382598,16.4784209 9.76382598,16.7764958 L9.76354497,19.7878624 L9.89417989,19.7883598 L9.89354497,29.8538624 L33.392545,29.8538624 L33.392545,15.8938624 Z M18.2039769,8.46764799 C14.6931135,8.46764799 11.6737258,10.5925769 10.4040832,13.6037402 L58.873854,13.6042405 C57.6015081,10.5988907 54.5851938,8.47912426 51.0785977,8.47912426 L18.2039769,8.47912426 L18.2039769,8.46764799 Z M9.89417989,34.6296296 C15.4382946,34.6296296 20.2577637,35.8497307 24.2260616,38.2664694 C27.4237045,40.2139384 30.0577342,42.9239706 32.0591366,46.3144437 C33.3891774,48.5631312 34.2597303,50.8028062 34.8273503,52.7091674 C35.3871947,50.8871011 36.2341845,48.7653847 37.5098513,46.6353644 C39.4832865,43.3337139 42.0918503,40.6946784 45.2334685,38.7982286 C49.1463142,36.444803 53.8984369,35.2566658 59.3650794,35.2566658 L59.364545,32.1438624 L9.89354497,32.1438624 L9.89417989,34.6296296 Z" id="形状结合" stroke="#007AFF" fill="#007AFF"></path>
                    </g>
                </g>
            </g>
        </g>
    </g>
</svg>