<?xml version="1.0" encoding="UTF-8"?>
<svg width="110px" height="110px" viewBox="0 0 110 110" version="1.1" xmlns="http://www.w3.org/2000/svg" xmlns:xlink="http://www.w3.org/1999/xlink">
    <title>餐补</title>
    <g id="page1" stroke="none" stroke-width="1" fill="none" fill-rule="evenodd">
        <g id="Step2.2_danjuxiangqing" transform="translate(-64.000000, -2598.000000)">
            <g id="餐补" transform="translate(64.000000, 2598.000000)">
                <circle id="椭圆形" fill="#FF9B00" opacity="0.103841146" cx="55" cy="55" r="55"></circle>
                <g id="餐饮" transform="translate(27.270833, 22.916667)" fill-rule="nonzero">
                    <rect id="矩形" fill="#000000" opacity="0" x="19.4791667" y="24.75" width="15.5833333" height="15.5833333"></rect>
                    <path d="M40.5454892,42.6552987 L40.3806325,42.5526424 C40.2729043,42.4852742 39.6151096,42.0874811 39.4159756,41.9639728 C39.0079144,41.7121441 38.6700396,41.4891875 38.3386938,41.2550028 C34.0769017,38.2314545 32.1116785,33.1740285 32.4071149,22.7351677 C32.8249696,7.95266282 39.4094466,0.102665152 48.7148763,0.00802886506 L49.0070481,0.0064248105 C49.8557991,6.38233834e-06 50.7045807,-0.00159883588 51.5533505,0.0016127972 L51.9042833,0.00321685176 C53.7084321,0.00408943019 55.1722748,1.43830239 55.1785671,3.21122567 L55.2291667,59.3481728 C55.2282665,62.0083251 53.034522,64.1648318 50.3275345,64.1666346 L45.4520182,64.1666346 C44.150964,64.1712998 42.9016766,63.6661387 41.9807676,62.7629694 C41.0598586,61.8598001 40.5433084,60.6331393 40.5454892,59.3545889 L40.5454892,42.6569027 L40.5454892,42.6552987 Z M12.1466135,23.8953103 C12.1466135,24.6957059 11.4447161,25.3445547 10.5788818,25.3445547 C9.71304748,25.3445547 9.0111501,24.6957059 9.0111501,23.8953103 L9.0111501,4.14571353 L4.30481961,4.14571353 L4.25287821,28.264782 C4.24838127,30.1343072 5.01656976,32.0096293 6.283297,33.5269882 C7.30389031,34.7487012 8.50634053,35.512453 9.00644691,35.5124529 C9.86983815,35.5124465 10.570725,36.1577695 10.5741786,36.9559003 L10.6290492,55.7765708 C10.6272557,56.9207949 11.1220395,58.0178668 12.0025668,58.822038 C12.8830941,59.6262091 14.0757705,60.0702667 15.3134314,60.055134 C17.9181461,60.0104938 20.0045243,58.0457031 20.0040845,55.6374433 L19.949214,36.966045 C19.9475465,36.5806781 20.1119813,36.2105661 20.4061689,35.937525 C20.7003566,35.6644839 21.1000685,35.5110006 21.5169456,35.5110037 C23.8685431,35.5110037 26.1072639,32.3603465 26.1292122,28.2560865 L26.253063,4.13846729 L21.5530035,4.13991651 L21.5530035,23.8953103 C21.5530035,24.6957059 20.8511061,25.3445547 19.9852718,25.3445547 C19.1194375,25.3445547 18.4175401,24.6957059 18.4175401,23.8953103 L18.4175401,4.1413658 L12.1466135,4.14426424 L12.1466135,23.8953103 Z M48.7075842,4.48107216 C42.0730237,4.55287042 36.7866371,10.3673239 36.4508028,22.9259035 C36.2102927,31.9419279 38.1251375,36.0172986 41.0713868,38.2323504 C41.311897,38.4126097 41.5685389,38.5898139 41.8853084,38.7975704 C42.0510258,38.9075592 42.6361694,39.2833542 42.7446922,39.3551525 C43.1142566,39.5965167 43.3972959,39.7905247 43.6686031,39.9967537 L44.2698785,40.4550402 L44.2698785,58.8645052 C44.2698785,59.7153906 44.9195493,60.3921271 45.745203,60.3921271 L50.1257141,60.3921271 C50.9367026,60.3921271 51.5981056,59.701642 51.5967218,58.86145 L51.5291788,4.4780169 L51.2153424,4.4780169 C50.4894124,4.47343403 49.7018883,4.47535221 48.9627596,4.48107216 L48.7075842,4.48107216 Z M7.10105673,56.2408501 L7.04529796,39.7404193 C3.64401333,38.4412106 0.219073434,33.5615686 0.229189019,28.8533389 L0.284970235,3.20558194 C0.283620978,2.35474289 0.639632199,1.53840733 1.27435268,0.936922904 C1.90907316,0.335438476 2.77026422,-0.00169152528 3.66766859,6.38233417e-06 L27.322902,6.38233417e-06 C29.2001137,6.38233417e-06 30.7056004,1.44179803 30.6971874,3.21839783 L30.5619793,28.8661548 C30.5349448,34.207168 27.799386,38.8048609 23.9081001,39.8509561 L23.9638589,56.0694378 C23.9790658,60.4764946 20.2246423,64.1033855 15.5780786,64.1658628 C13.3412081,64.1954404 11.1851419,63.3738337 9.59204929,61.8847816 C7.99895671,60.3957296 7.10174342,58.3634581 7.10105673,56.2424521 L7.10105673,56.2408501 Z" id="形状" fill="#FF9B00"></path>
                </g>
            </g>
        </g>
    </g>
</svg>